<svg width="120" height="120" fill="none" xmlns="http://www.w3.org/2000/svg"><circle cx="60" cy="60" r="60" fill="#303030"/><circle cx="100.41" cy="64.055" r="1.95" fill="url(#paint0_linear_121_3)"/><path d="M53.388 34.696c-.65-1.606-1.835-5.505-1.72-8.258.125-3 1.032-4.932 2.752-7.455 1.655-2.427 3.556-4.014 4.702-5.275a9.9 9.9 0 002.294-4.473c.246-1.147.446-3.556-.114-4.817-.46-1.032-.918-1.912-1.147-2.064" stroke="url(#paint1_linear_121_3)" stroke-width="3.899" stroke-linecap="round"/><path d="M66.004 34.466c-.956-1.53-3.097-5.596-3.097-8.258 0-2.179-.114-3.67 1.491-7.455 1.606-3.784 2.18-4.931 2.18-6.88 0-1.964-1.148-4.933-2.295-6.309-.917-1.1-3.096-2.943-4.128-3.326" stroke="url(#paint2_linear_121_3)" stroke-width="3.899" stroke-linecap="round"/><path d="M37.09 46.454c-1.576-.719-5.118-2.734-6.928-4.811-1.972-2.263-2.643-4.29-3.13-7.305-.467-2.9-.18-5.359-.214-7.064a9.902 9.902 0 00-1.412-4.824c-.61-1.002-2.121-2.888-3.396-3.418-1.043-.433-1.98-.756-2.252-.71" stroke="url(#paint3_linear_121_3)" stroke-width="3.899" stroke-linecap="round"/><path d="M46.09 37.61c-1.745-.452-6.096-1.931-7.927-3.864-1.499-1.582-2.607-2.585-4.045-6.437-1.438-3.852-1.81-5.079-3.151-6.494-1.35-1.425-4.224-2.79-6.003-3.001-1.424-.168-4.273-.007-5.285.425" stroke="url(#paint4_linear_121_3)" stroke-width="3.899" stroke-linecap="round"/><path d="M34.487 66.945c-1.615.626-5.532 1.753-8.282 1.597-2.997-.17-4.916-1.105-7.413-2.863-2.402-1.69-3.961-3.615-5.205-4.78a9.901 9.901 0 00-4.438-2.36c-1.144-.263-3.549-.5-4.819.043-1.038.443-1.924.889-2.08 1.116" stroke="url(#paint5_linear_121_3)" stroke-width="3.899" stroke-linecap="round"/><path d="M34.446 54.328c-1.544.933-5.641 3.013-8.303 2.973-2.179-.032-3.672.06-7.432-1.602-3.76-1.661-4.898-2.252-6.848-2.281-1.963-.03-4.948 1.073-6.341 2.2-1.115.9-2.99 3.052-3.387 4.078" stroke="url(#paint6_linear_121_3)" stroke-width="3.899" stroke-linecap="round"/><path d="M47.49 83.188c-.717 1.577-2.73 5.12-4.805 6.933-2.261 1.974-4.288 2.646-7.302 3.135-2.9.47-5.359.184-7.064.221a9.901 9.901 0 00-4.823 1.415c-1 .612-2.886 2.124-3.415 3.4-.433 1.043-.754 1.981-.707 2.253" stroke="url(#paint7_linear_121_3)" stroke-width="3.899" stroke-linecap="round"/><path d="M38.64 74.196c-.452 1.746-1.928 6.098-3.858 7.93-1.581 1.5-2.583 2.61-6.434 4.051-3.85 1.44-5.077 1.814-6.491 3.157-1.424 1.351-2.788 4.226-2.996 6.006-.167 1.423-.004 4.272.43 5.284" stroke="url(#paint8_linear_121_3)" stroke-width="3.899" stroke-linecap="round"/><path d="M67.337 85.216c.58 1.632 1.598 5.579 1.365 8.324-.253 2.99-1.242 4.883-3.069 7.33-1.757 2.354-3.723 3.858-4.923 5.07a9.899 9.899 0 00-2.483 4.37c-.294 1.136-.598 3.533-.091 4.818.414 1.051.834 1.949 1.057 2.111" stroke="url(#paint9_linear_121_3)" stroke-width="3.899" stroke-linecap="round"/><path d="M54.723 84.906c.89 1.568 2.854 5.722 2.74 8.382-.093 2.177-.042 3.672-1.808 7.384-1.766 3.713-2.388 4.834-2.471 6.782-.084 1.961.935 4.976 2.022 6.4.87 1.139 2.967 3.073 3.982 3.5" stroke="url(#paint10_linear_121_3)" stroke-width="3.899" stroke-linecap="round"/><path d="M83.336 72.614c1.593.68 5.183 2.609 7.043 4.641 2.026 2.215 2.746 4.225 3.305 7.227.539 2.888.31 5.353.387 7.056a9.9 9.9 0 001.528 4.79c.634.986 2.19 2.834 3.478 3.334 1.053.408 1.998.708 2.269.655" stroke="url(#paint11_linear_121_3)" stroke-width="3.899" stroke-linecap="round"/><path d="M74.553 81.672c1.756.41 6.142 1.784 8.019 3.672 1.537 1.544 2.67 2.52 4.2 6.336 1.53 3.816 1.932 5.034 3.307 6.416 1.385 1.392 4.291 2.688 6.075 2.855 1.427.133 4.271-.097 5.273-.554" stroke="url(#paint12_linear_121_3)" stroke-width="3.899" stroke-linecap="round"/><path d="M85.526 52.709c1.616-.623 5.535-1.742 8.285-1.581 2.997.176 4.914 1.115 7.407 2.878 2.399 1.696 3.954 3.623 5.196 4.79a9.904 9.904 0 004.433 2.37c1.143.265 3.548.506 4.818-.033 1.04-.442 1.927-.886 2.084-1.112" stroke="url(#paint13_linear_121_3)" stroke-width="3.899" stroke-linecap="round"/><path d="M85.542 65.327c1.545-.93 5.647-3.002 8.309-2.957m14.272 3.912c1.962.033 4.95-1.063 6.345-2.187 1.117-.898 2.996-3.046 3.395-4.072" stroke="url(#paint14_linear_121_3)" stroke-width="3.899" stroke-linecap="round"/><path d="M73.08 37.084c.67-1.598 2.574-5.2 4.593-7.074 2.201-2.042 4.206-2.775 7.204-3.355 2.884-.558 5.351-.346 7.054-.434a9.9 9.9 0 004.778-1.56c.982-.642 2.82-2.21 3.311-3.501.401-1.056.695-2.004.639-2.274" stroke="url(#paint15_linear_121_3)" stroke-width="3.899" stroke-linecap="round"/><path d="M82.198 45.805c.399-1.759 1.742-6.153 3.617-8.044 1.534-1.547 2.503-2.686 6.308-4.242 3.805-1.557 5.02-1.967 6.393-3.352 1.382-1.393 2.659-4.309 2.813-6.093.124-1.428-.125-4.271-.589-5.27" stroke="url(#paint16_linear_121_3)" stroke-width="3.899" stroke-linecap="round"/><path d="M40.196 74.024c-3.725-8.36-2.3-14.758-.04-18.287 2.542-3.971 6.056-7.173 8.44-8.247 2.383-1.075 7.168-3.026 14.017-.92 4.689 1.443 7.304 4.752 9.038 7.823 1.654 2.93 2.794 8.256-.376 14.123-.96 1.777-4.405 5.269-8.264 5.806-2.165.3-6.946.109-9.812-2.977-1.825-1.965-3.238-4.743-3.108-7.308.107-2.119.558-3.714 3.13-6.214a5.667 5.667 0 012.451-1.398" stroke="url(#paint17_radial_121_3)" stroke-width="3.899" stroke-linecap="round"/><circle cx="60.155" cy="59.697" r="25.117" stroke="url(#paint18_radial_121_3)" stroke-width="3.899"/><defs><linearGradient id="paint0_linear_121_3" x1="95.477" y1="62.024" x2="106.667" y2="65.86" gradientUnits="userSpaceOnUse"><stop stop-color="#F37847"/><stop offset="1" stop-color="#FFB017"/></linearGradient><linearGradient id="paint1_linear_121_3" x1="56.661" y1="2.354" x2="56.661" y2="34.696" gradientUnits="userSpaceOnUse"><stop stop-color="#FFDA16"/><stop offset=".38" stop-color="#FFAC16"/><stop offset=".823" stop-color="#ED6359"/><stop offset="1" stop-color="#FFAC16"/></linearGradient><linearGradient id="paint2_linear_121_3" x1="63.366" y1="2.238" x2="63.366" y2="34.466" gradientUnits="userSpaceOnUse"><stop stop-color="#FFDA16"/><stop offset=".38" stop-color="#FFAC16"/><stop offset=".823" stop-color="#ED6359"/><stop offset="1" stop-color="#FFAC16"/></linearGradient><linearGradient id="paint3_linear_121_3" x1="17.222" y1="20.725" x2="39.466" y2="44.203" gradientUnits="userSpaceOnUse"><stop stop-color="#FFDA16"/><stop offset=".38" stop-color="#FFAC16"/><stop offset=".823" stop-color="#ED6359"/><stop offset="1" stop-color="#FFAC16"/></linearGradient><linearGradient id="paint4_linear_121_3" x1="22.01" y1="16.031" x2="44.175" y2="39.425" gradientUnits="userSpaceOnUse"><stop stop-color="#FFDA16"/><stop offset=".38" stop-color="#FFAC16"/><stop offset=".823" stop-color="#ED6359"/><stop offset="1" stop-color="#FFAC16"/></linearGradient><linearGradient id="paint5_linear_121_3" x1="2.197" y1="63.191" x2="34.535" y2="63.673" gradientUnits="userSpaceOnUse"><stop stop-color="#FFDA16"/><stop offset=".38" stop-color="#FFAC16"/><stop offset=".823" stop-color="#ED6359"/><stop offset="1" stop-color="#FFAC16"/></linearGradient><linearGradient id="paint6_linear_121_3" x1="2.183" y1="56.485" x2="34.406" y2="56.965" gradientUnits="userSpaceOnUse"><stop stop-color="#FFDA16"/><stop offset=".38" stop-color="#FFAC16"/><stop offset=".823" stop-color="#ED6359"/><stop offset="1" stop-color="#FFAC16"/></linearGradient><linearGradient id="paint7_linear_121_3" x1="21.779" y1="103.079" x2="45.237" y2="80.814" gradientUnits="userSpaceOnUse"><stop stop-color="#FFDA16"/><stop offset=".38" stop-color="#FFAC16"/><stop offset=".823" stop-color="#ED6359"/><stop offset="1" stop-color="#FFAC16"/></linearGradient><linearGradient id="paint8_linear_121_3" x1="17.08" y1="98.295" x2="40.455" y2="76.109" gradientUnits="userSpaceOnUse"><stop stop-color="#FFDA16"/><stop offset=".38" stop-color="#FFAC16"/><stop offset=".823" stop-color="#ED6359"/><stop offset="1" stop-color="#FFAC16"/></linearGradient><linearGradient id="paint9_linear_121_3" x1="62.684" y1="117.389" x2="64.067" y2="85.076" gradientUnits="userSpaceOnUse"><stop stop-color="#FFDA16"/><stop offset=".38" stop-color="#FFAC16"/><stop offset=".823" stop-color="#ED6359"/><stop offset="1" stop-color="#FFAC16"/></linearGradient><linearGradient id="paint10_linear_121_3" x1="55.98" y1="117.216" x2="57.358" y2="85.018" gradientUnits="userSpaceOnUse"><stop stop-color="#FFDA16"/><stop offset=".38" stop-color="#FFAC16"/><stop offset=".823" stop-color="#ED6359"/><stop offset="1" stop-color="#FFAC16"/></linearGradient><linearGradient id="paint11_linear_121_3" x1="103.823" y1="97.853" x2="81.016" y2="74.922" gradientUnits="userSpaceOnUse"><stop stop-color="#FFDA16"/><stop offset=".38" stop-color="#FFAC16"/><stop offset=".823" stop-color="#ED6359"/><stop offset="1" stop-color="#FFAC16"/></linearGradient><linearGradient id="paint12_linear_121_3" x1="99.15" y1="102.662" x2="76.424" y2="79.812" gradientUnits="userSpaceOnUse"><stop stop-color="#FFDA16"/><stop offset=".38" stop-color="#FFAC16"/><stop offset=".823" stop-color="#ED6359"/><stop offset="1" stop-color="#FFAC16"/></linearGradient><linearGradient id="paint13_linear_121_3" x1="117.808" y1="56.528" x2="85.471" y2="55.981" gradientUnits="userSpaceOnUse"><stop stop-color="#FFDA16"/><stop offset=".38" stop-color="#FFAC16"/><stop offset=".823" stop-color="#ED6359"/><stop offset="1" stop-color="#FFAC16"/></linearGradient><linearGradient id="paint14_linear_121_3" x1="117.809" y1="63.234" x2="85.587" y2="62.69" gradientUnits="userSpaceOnUse"><stop stop-color="#FFDA16"/><stop offset=".38" stop-color="#FFAC16"/><stop offset=".823" stop-color="#ED6359"/><stop offset="1" stop-color="#FFAC16"/></linearGradient><linearGradient id="paint15_linear_121_3" x1="98.179" y1="16.426" x2="75.404" y2="39.389" gradientUnits="userSpaceOnUse"><stop stop-color="#FFDA16"/><stop offset=".38" stop-color="#FFAC16"/><stop offset=".823" stop-color="#ED6359"/><stop offset="1" stop-color="#FFAC16"/></linearGradient><linearGradient id="paint16_linear_121_3" x1="103.02" y1="21.066" x2="80.326" y2="43.947" gradientUnits="userSpaceOnUse"><stop stop-color="#FFDA16"/><stop offset=".38" stop-color="#FFAC16"/><stop offset=".823" stop-color="#ED6359"/><stop offset="1" stop-color="#FFAC16"/></linearGradient><radialGradient id="paint17_radial_121_3" cx="0" cy="0" r="1" gradientUnits="userSpaceOnUse" gradientTransform="rotate(164.055 24.884 34.29) scale(20.9475 25.6219)"><stop offset=".005" stop-color="#FFDA16"/><stop offset=".406" stop-color="#FDA21F"/><stop offset=".875" stop-color="#ED6359"/><stop offset="1" stop-color="#F5803F"/></radialGradient><radialGradient id="paint18_radial_121_3" cx="0" cy="0" r="1" gradientUnits="userSpaceOnUse" gradientTransform="rotate(90 .229 59.926) scale(27.0663)"><stop offset=".75" stop-color="#ED6359"/><stop offset="1" stop-color="#FDA220"/></radialGradient></defs></svg>