<svg width="120" height="120" viewBox="0 0 120 120" fill="none" xmlns="http://www.w3.org/2000/svg">
<circle cx="60" cy="60" r="60" fill="#303030"/>
<circle cx="100.41" cy="64.0552" r="1.94969" fill="url(#paint0_linear_121_3)"/>
<path d="M53.388 34.6955C52.7381 33.0899 51.553 29.1905 51.6677 26.438C51.7927 23.4389 52.6999 21.5064 54.4202 18.9832C56.075 16.5563 57.9756 14.9692 59.1224 13.7076C60.2525 12.4646 61.0721 10.8404 61.4162 9.23478C61.662 8.08791 61.8622 5.67946 61.3015 4.4179C60.8428 3.38571 60.384 2.50643 60.1546 2.35352" stroke="url(#paint1_linear_121_3)" stroke-width="3.89939" stroke-linecap="round"/>
<path d="M66.0038 34.4656C65.048 32.9364 62.9072 28.8704 62.9072 26.208C62.9072 24.029 62.7925 22.538 64.3981 18.7533C66.0038 14.9686 66.5772 13.8218 66.5772 11.8721C66.5772 9.90892 65.4303 6.94048 64.2834 5.56423C63.3659 4.46322 61.1869 2.62057 60.1547 2.23828" stroke="url(#paint2_linear_121_3)" stroke-width="3.89939" stroke-linecap="round"/>
<path d="M37.0902 46.454C35.5141 45.7354 31.9718 43.7199 30.162 41.6429C28.19 39.3799 27.5194 37.3531 27.0328 34.3383C26.5647 31.4384 26.8528 28.9791 26.8177 27.2745C26.783 25.595 26.2609 23.8522 25.4064 22.45C24.796 21.4485 23.2848 19.5624 22.0101 19.0323C20.9672 18.5985 20.0294 18.2758 19.7577 18.3225" stroke="url(#paint3_linear_121_3)" stroke-width="3.89939" stroke-linecap="round"/>
<path d="M46.0902 37.6105C44.3447 37.1578 39.9941 35.6787 38.163 33.7461C36.6643 32.1643 35.5555 31.1609 34.118 27.3092C32.6805 23.4575 32.308 22.2305 30.967 20.8152C29.6168 19.3902 26.7426 18.0241 24.9635 17.8139C23.5402 17.6457 20.6911 17.8068 19.6788 18.2393" stroke="url(#paint4_linear_121_3)" stroke-width="3.89939" stroke-linecap="round"/>
<path d="M34.4868 66.9453C32.8717 67.5712 28.9551 68.6981 26.2046 68.5424C23.2077 68.3727 21.2889 67.4369 18.7917 65.6791C16.3896 63.9884 14.831 62.0644 13.5867 60.8989C12.3606 59.7505 10.7488 58.9067 9.1485 58.5388C8.00541 58.276 5.60022 58.0399 4.33044 58.5817C3.29153 59.025 2.40552 59.4706 2.24921 59.6977" stroke="url(#paint5_linear_121_3)" stroke-width="3.89939" stroke-linecap="round"/>
<path d="M34.4455 54.3279C32.9023 55.2607 28.8048 57.3408 26.1428 57.3011C23.964 57.2687 22.4715 57.3611 18.7111 55.6993C14.9508 54.0375 13.8126 53.447 11.8631 53.418C9.90015 53.3887 6.91496 54.4913 5.52178 55.6175C4.40723 56.5185 2.53233 58.6699 2.1347 59.6963" stroke="url(#paint6_linear_121_3)" stroke-width="3.89939" stroke-linecap="round"/>
<path d="M47.4901 83.1882C46.7729 84.7649 44.7604 88.3089 42.685 90.1205C40.4237 92.0945 38.3975 92.7668 35.3831 93.256C32.4836 93.7265 30.0241 93.4405 28.3195 93.4771C26.64 93.5132 24.8977 94.0367 23.4962 94.8925C22.4952 95.5038 20.6104 97.0165 20.0814 98.2917C19.6485 99.335 19.3266 100.273 19.3735 100.545" stroke="url(#paint7_linear_121_3)" stroke-width="3.89939" stroke-linecap="round"/>
<path d="M38.6392 74.1961C38.188 75.942 36.7125 80.2939 34.7815 82.1266C33.201 83.6267 32.1985 84.7363 28.348 86.1771C24.4976 87.6179 23.2709 87.9915 21.8568 89.3337C20.4329 90.6851 19.0693 93.5604 18.8606 95.3397C18.6936 96.7631 18.8572 99.6122 19.2905 100.624" stroke="url(#paint8_linear_121_3)" stroke-width="3.89939" stroke-linecap="round"/>
<path d="M67.3367 85.2163C67.9173 86.8482 68.9346 90.7947 68.7023 93.5398C68.4492 96.5308 67.4601 98.4227 65.6335 100.87C63.8764 103.224 61.9098 104.728 60.71 105.94C59.5278 107.133 58.6395 108.721 58.227 110.31C57.9325 111.446 57.6294 113.843 58.1356 115.128C58.5498 116.179 58.9705 117.077 59.1932 117.239" stroke="url(#paint9_linear_121_3)" stroke-width="3.89939" stroke-linecap="round"/>
<path d="M54.7229 84.9056C55.6124 86.4742 57.5774 90.6281 57.4635 93.288C57.3703 95.4651 57.4211 96.9595 55.6551 100.672C53.8891 104.385 53.2671 105.506 53.1838 107.454C53.0998 109.415 54.1187 112.43 55.2057 113.854C56.0752 114.993 58.1735 116.927 59.1884 117.354" stroke="url(#paint10_linear_121_3)" stroke-width="3.89939" stroke-linecap="round"/>
<path d="M83.3361 72.6137C84.9292 73.2938 88.5193 75.2228 90.379 77.2553C92.4053 79.4698 93.1249 81.4798 93.6844 84.4819C94.2226 87.3696 93.9943 89.8351 94.0708 91.5384C94.1461 93.2166 94.7103 94.9462 95.5986 96.3272C96.2332 97.3137 97.7896 99.1625 99.0768 99.6616C100.13 100.07 101.075 100.37 101.346 100.317" stroke="url(#paint11_linear_121_3)" stroke-width="3.89939" stroke-linecap="round"/>
<path d="M74.5533 81.6724C76.3093 82.0827 80.6945 83.4558 82.572 85.3435C84.1086 86.8885 85.2413 87.8647 86.7718 91.6804C88.3023 95.4961 88.7045 96.7137 90.0794 98.096C91.4638 99.4879 94.3703 100.784 96.154 100.951C97.5809 101.084 100.425 100.854 101.427 100.397" stroke="url(#paint12_linear_121_3)" stroke-width="3.89939" stroke-linecap="round"/>
<path d="M85.5259 52.7085C87.1423 52.0858 91.0611 50.9668 93.8113 51.128C96.8078 51.3037 98.7247 52.2434 101.218 54.0061C103.617 55.7017 105.172 57.6288 106.414 58.7968C107.638 59.9477 109.248 60.7947 110.847 61.1659C111.99 61.431 114.395 61.6719 115.665 61.1326C116.705 60.6914 117.592 60.2475 117.749 60.0208" stroke="url(#paint13_linear_121_3)" stroke-width="3.89939" stroke-linecap="round"/>
<path d="M85.5419 65.327C87.087 64.3972 91.1887 62.3254 93.8506 62.3704M108.123 66.2822C110.085 66.3154 113.073 65.2188 114.468 64.0954C115.585 63.1966 117.464 61.049 117.863 60.0234" stroke="url(#paint14_linear_121_3)" stroke-width="3.89939" stroke-linecap="round"/>
<path d="M73.0798 37.0839C73.7491 35.4863 75.6536 31.8832 77.6734 30.0097C79.8741 27.9683 81.8791 27.2351 84.8773 26.6552C87.7613 26.0973 90.2283 26.3088 91.931 26.2208C93.6087 26.134 95.3343 25.5581 96.7093 24.6604C97.6914 24.0191 99.5296 22.4502 100.02 21.1596C100.421 20.1037 100.715 19.1564 100.659 18.8863" stroke="url(#paint15_linear_121_3)" stroke-width="3.89939" stroke-linecap="round"/>
<path d="M82.1984 45.8049C82.5967 44.0462 83.94 39.6517 85.8148 37.7615C87.3494 36.2143 88.3179 35.075 92.1231 33.5186C95.9282 31.9622 97.143 31.5517 98.516 30.1674C99.8985 28.7736 101.175 25.8584 101.329 24.0736C101.453 22.6458 101.204 19.803 100.74 18.8047" stroke="url(#paint16_linear_121_3)" stroke-width="3.89939" stroke-linecap="round"/>
<path d="M40.1958 74.0241C36.4706 65.6636 37.8967 59.266 40.1555 55.7372C42.6976 51.7659 46.2121 48.5637 48.5956 47.4896C50.9791 46.4155 55.7639 44.4641 62.613 46.5708C67.3019 48.0131 69.9171 51.3215 71.651 54.3932C73.3048 57.3228 74.4453 62.6492 71.2753 68.5165C70.3155 70.293 66.87 73.7849 63.0112 74.3216C60.8465 74.6227 56.0648 74.431 53.1989 71.345C51.3739 69.3799 49.9605 66.6024 50.0907 64.0374C50.1982 61.9184 50.649 60.3231 53.2205 57.8232C54.0128 57.0529 54.9521 56.6114 55.6724 56.4254" stroke="url(#paint17_radial_121_3)" stroke-width="3.89939" stroke-linecap="round"/>
<circle cx="60.1546" cy="59.6972" r="25.1166" stroke="url(#paint18_radial_121_3)" stroke-width="3.89939"/>
<defs>
<linearGradient id="paint0_linear_121_3" x1="95.4772" y1="62.0237" x2="106.667" y2="65.8602" gradientUnits="userSpaceOnUse">
<stop stop-color="#F37847"/>
<stop offset="1" stop-color="#FFB017"/>
</linearGradient>
<linearGradient id="paint1_linear_121_3" x1="56.661" y1="2.35352" x2="56.661" y2="34.6955" gradientUnits="userSpaceOnUse">
<stop stop-color="#FFDA16"/>
<stop offset="0.380208" stop-color="#FFAC16"/>
<stop offset="0.822917" stop-color="#ED6359"/>
<stop offset="1" stop-color="#FFAC16"/>
</linearGradient>
<linearGradient id="paint2_linear_121_3" x1="63.3659" y1="2.23828" x2="63.3659" y2="34.4656" gradientUnits="userSpaceOnUse">
<stop stop-color="#FFDA16"/>
<stop offset="0.380208" stop-color="#FFAC16"/>
<stop offset="0.822917" stop-color="#ED6359"/>
<stop offset="1" stop-color="#FFAC16"/>
</linearGradient>
<linearGradient id="paint3_linear_121_3" x1="17.2217" y1="20.7254" x2="39.4661" y2="44.2028" gradientUnits="userSpaceOnUse">
<stop stop-color="#FFDA16"/>
<stop offset="0.380208" stop-color="#FFAC16"/>
<stop offset="0.822917" stop-color="#ED6359"/>
<stop offset="1" stop-color="#FFAC16"/>
</linearGradient>
<linearGradient id="paint4_linear_121_3" x1="22.0099" y1="16.0306" x2="44.1754" y2="39.4248" gradientUnits="userSpaceOnUse">
<stop stop-color="#FFDA16"/>
<stop offset="0.380208" stop-color="#FFAC16"/>
<stop offset="0.822917" stop-color="#ED6359"/>
<stop offset="1" stop-color="#FFAC16"/>
</linearGradient>
<linearGradient id="paint5_linear_121_3" x1="2.19717" y1="63.1909" x2="34.5355" y2="63.6726" gradientUnits="userSpaceOnUse">
<stop stop-color="#FFDA16"/>
<stop offset="0.380208" stop-color="#FFAC16"/>
<stop offset="0.822917" stop-color="#ED6359"/>
<stop offset="1" stop-color="#FFAC16"/>
</linearGradient>
<linearGradient id="paint6_linear_121_3" x1="2.18254" y1="56.4854" x2="34.4062" y2="56.9654" gradientUnits="userSpaceOnUse">
<stop stop-color="#FFDA16"/>
<stop offset="0.380208" stop-color="#FFAC16"/>
<stop offset="0.822917" stop-color="#ED6359"/>
<stop offset="1" stop-color="#FFAC16"/>
</linearGradient>
<linearGradient id="paint7_linear_121_3" x1="21.7785" y1="103.079" x2="45.237" y2="80.8142" gradientUnits="userSpaceOnUse">
<stop stop-color="#FFDA16"/>
<stop offset="0.380208" stop-color="#FFAC16"/>
<stop offset="0.822917" stop-color="#ED6359"/>
<stop offset="1" stop-color="#FFAC16"/>
</linearGradient>
<linearGradient id="paint8_linear_121_3" x1="17.0798" y1="98.2948" x2="40.4551" y2="76.1093" gradientUnits="userSpaceOnUse">
<stop stop-color="#FFDA16"/>
<stop offset="0.380208" stop-color="#FFAC16"/>
<stop offset="0.822917" stop-color="#ED6359"/>
<stop offset="1" stop-color="#FFAC16"/>
</linearGradient>
<linearGradient id="paint9_linear_121_3" x1="62.6836" y1="117.389" x2="64.0667" y2="85.0763" gradientUnits="userSpaceOnUse">
<stop stop-color="#FFDA16"/>
<stop offset="0.380208" stop-color="#FFAC16"/>
<stop offset="0.822917" stop-color="#ED6359"/>
<stop offset="1" stop-color="#FFAC16"/>
</linearGradient>
<linearGradient id="paint10_linear_121_3" x1="55.9801" y1="117.216" x2="57.3583" y2="85.0184" gradientUnits="userSpaceOnUse">
<stop stop-color="#FFDA16"/>
<stop offset="0.380208" stop-color="#FFAC16"/>
<stop offset="0.822917" stop-color="#ED6359"/>
<stop offset="1" stop-color="#FFAC16"/>
</linearGradient>
<linearGradient id="paint11_linear_121_3" x1="103.823" y1="97.8529" x2="81.0155" y2="74.9218" gradientUnits="userSpaceOnUse">
<stop stop-color="#FFDA16"/>
<stop offset="0.380208" stop-color="#FFAC16"/>
<stop offset="0.822917" stop-color="#ED6359"/>
<stop offset="1" stop-color="#FFAC16"/>
</linearGradient>
<linearGradient id="paint12_linear_121_3" x1="99.1499" y1="102.662" x2="76.4236" y2="79.8123" gradientUnits="userSpaceOnUse">
<stop stop-color="#FFDA16"/>
<stop offset="0.380208" stop-color="#FFAC16"/>
<stop offset="0.822917" stop-color="#ED6359"/>
<stop offset="1" stop-color="#FFAC16"/>
</linearGradient>
<linearGradient id="paint13_linear_121_3" x1="117.808" y1="56.5277" x2="85.4706" y2="55.981" gradientUnits="userSpaceOnUse">
<stop stop-color="#FFDA16"/>
<stop offset="0.380208" stop-color="#FFAC16"/>
<stop offset="0.822917" stop-color="#ED6359"/>
<stop offset="1" stop-color="#FFAC16"/>
</linearGradient>
<linearGradient id="paint14_linear_121_3" x1="117.809" y1="63.2342" x2="85.5865" y2="62.6895" gradientUnits="userSpaceOnUse">
<stop stop-color="#FFDA16"/>
<stop offset="0.380208" stop-color="#FFAC16"/>
<stop offset="0.822917" stop-color="#ED6359"/>
<stop offset="1" stop-color="#FFAC16"/>
</linearGradient>
<linearGradient id="paint15_linear_121_3" x1="98.179" y1="16.4261" x2="75.4036" y2="39.3888" gradientUnits="userSpaceOnUse">
<stop stop-color="#FFDA16"/>
<stop offset="0.380208" stop-color="#FFAC16"/>
<stop offset="0.822917" stop-color="#ED6359"/>
<stop offset="1" stop-color="#FFAC16"/>
</linearGradient>
<linearGradient id="paint16_linear_121_3" x1="103.02" y1="21.0661" x2="80.3256" y2="43.9474" gradientUnits="userSpaceOnUse">
<stop stop-color="#FFDA16"/>
<stop offset="0.380208" stop-color="#FFAC16"/>
<stop offset="0.822917" stop-color="#ED6359"/>
<stop offset="1" stop-color="#FFAC16"/>
</linearGradient>
<radialGradient id="paint17_radial_121_3" cx="0" cy="0" r="1" gradientUnits="userSpaceOnUse" gradientTransform="translate(58.2313 60.4249) rotate(164.055) scale(20.9475 25.6219)">
<stop offset="0.00520833" stop-color="#FFDA16"/>
<stop offset="0.40625" stop-color="#FDA21F"/>
<stop offset="0.875" stop-color="#ED6359"/>
<stop offset="1" stop-color="#F5803F"/>
</radialGradient>
<radialGradient id="paint18_radial_121_3" cx="0" cy="0" r="1" gradientUnits="userSpaceOnUse" gradientTransform="translate(60.1546 59.6972) rotate(90) scale(27.0663)">
<stop offset="0.75" stop-color="#ED6359"/>
<stop offset="1" stop-color="#FDA220"/>
</radialGradient>
</defs>
</svg>
